# xmcd
#
# Track frame offsets:
#	150
#	18981
#	38282
#	53178
#	79151
#	98116
#	125052
#	144425
#	160243
#	176108
#	203073
#
# Disc length: 2980 seconds
#
# Revision: 1
# Processed by: cddbd v1.5PL3 Copyright (c) Steve Scherf et al.
# Submitted via: audiograbber 1.83.01
#
DISCID=8b0ba20b
DTITLE=Stolle - On The Ragged Edge
DYEAR=2004
DGENRE=Blues
TTITLE0=Every Night And Day
TTITLE1=The Bailiff
TTITLE2=Tell Me The Truth
TTITLE3=Fantasy
TTITLE4=Moon Over Chicago
TTITLE5=Drinker
TTITLE6=Hey Lovers
TTITLE7=Long Way To Go
TTITLE8=Lovesong
TTITLE9=Something's Wrong
TTITLE10=Why
EXTD=added by Columbia No1
EXTT0=
EXTT1=
EXTT2=
EXTT3=
EXTT4=
EXTT5=
EXTT6=
EXTT7=
EXTT8=
EXTT9=
EXTT10=
PLAYORDER=
